<svg xmlns="http://www.w3.org/2000/svg" viewBox="0 0 400 400" width="400" height="400" role="img" aria-label="Иллюстрированный портрет">
  <defs>
    <clipPath id="c2"><rect width="400" height="400"/></clipPath>
  </defs>
  <g clip-path="url(#c2)">
    <rect width="400" height="400" fill="#fdf0e4"/>
    <circle cx="200" cy="168" r="118" fill="#fbe0c8"/>
    <!-- плечи -->
    <path d="M56 400c0-80 64-144 144-144s144 64 144 144z" fill="#2f3b4d"/>
    <path d="M170 262v22c0 16 60 16 60 0v-22z" fill="#e8a878"/>
    <!-- воротник рубашки -->
    <path d="M200 300l-30-38-22 14 52 44 52-44-22-14z" fill="#f7f7f7"/>
    <!-- шея и голова -->
    <rect x="178" y="212" width="44" height="58" rx="22" fill="#e8a878"/>
    <ellipse cx="200" cy="172" rx="60" ry="68" fill="#f2b98c"/>
    <!-- короткие волосы и борода -->
    <path d="M142 158c2-42 28-64 58-64s56 22 58 64c-16-16-36-24-58-24s-42 8-58 24z" fill="#3a3027"/>
    <path d="M142 176c0 34 22 64 58 64s58-30 58-64c-6 30-26 46-58 46s-52-16-58-46z" fill="#3a3027" opacity="0.55"/>
  </g>
</svg>
